<svg width="200" height="150" xmlns="http://www.w3.org/2000/svg">

 <g>
  <title>background</title>
  <rect fill="none" id="canvas_background" height="152" width="202" y="-1" x="-1"/>
 </g>
 <g>
  <title>Layer 1</title>
  <g display="none" id="Layer_2">
   <g id="svg_1" display="inline">
    <path id="svg_2" d="m391.238,122.682c0,-0.117 -0.007,-0.231 -0.007,-0.348l17.437,0l18.675,-132.612l-41.088,-52.919l-87.994,0l-0.243,0l-87.998,0l-41.09,52.919l18.678,132.612l17.138,0c0,0.116 -0.008,0.23 -0.008,0.348c0,18.396 14.912,33.307 33.308,33.307c18.395,0 33.308,-14.911 33.308,-33.307c0,-0.117 -0.007,-0.231 -0.007,-0.348l26.671,0l0.243,0l26.371,0c0,0.116 -0.008,0.23 -0.008,0.348c0,18.396 14.911,33.307 33.307,33.307c18.397,-0.001 33.307,-14.912 33.307,-33.307zm-152.668,17.122c-9.456,0 -17.121,-7.668 -17.121,-17.122c0,-0.117 0.015,-0.231 0.017,-0.348l34.207,0c0.003,0.116 0.017,0.23 0.017,0.348c0.001,9.454 -7.664,17.122 -17.12,17.122zm-10.634,-50.779l0,-65.374c0,-4.641 3.763,-8.402 8.404,-8.402c4.642,0 8.406,3.761 8.406,8.402l0,65.374c0,4.64 -3.765,8.404 -8.406,8.404c-4.641,0.001 -8.404,-3.763 -8.404,-8.404zm57.389,0c0,4.64 -3.762,8.404 -8.403,8.404c-4.644,0 -8.406,-3.764 -8.406,-8.404l0,-65.374c0,-4.641 3.763,-8.402 8.406,-8.402c4.641,0 8.403,3.761 8.403,8.402l0,65.374zm41.551,0c0,4.64 -3.762,8.404 -8.404,8.404c-4.644,0 -8.404,-3.764 -8.404,-8.404l0,-65.374c0,-4.641 3.761,-8.402 8.404,-8.402c4.643,0 8.404,3.761 8.404,8.402l0,65.374zm-136.457,-95.566l29.885,-42.959l158.136,0l29.884,42.958l-217.905,0l0,0.001zm177.037,30.192l0,65.374c0,4.64 -3.761,8.404 -8.4,8.404c-4.645,0 -8.408,-3.764 -8.408,-8.404l0,-65.374c0,-4.641 3.764,-8.402 8.408,-8.402c4.639,0 8.4,3.761 8.4,8.402zm-9.003,116.153c-9.453,0 -17.12,-7.668 -17.12,-17.122c0,-0.117 0.017,-0.231 0.019,-0.348l34.207,0c0,0.116 0.017,0.23 0.017,0.348c-0.001,9.454 -7.665,17.122 -17.123,17.122z" fill="#FFFFFF"/>
    <path id="svg_3" d="m464.995,-38.578l2.596,-17.373l-11.322,-1.691c-25.257,-59.493 -86.123,-101.434 -157.208,-101.434c-70.003,0 -130.099,40.673 -156.034,98.729l-14.791,2.208l2.594,17.374c-39.773,8.083 -66.678,46.009 -60.613,86.615c6.066,40.609 42.88,69.017 83.279,65.121l2.25,15.072l20.425,-3.052l-21.94,-146.875c14.885,-64.662 73.874,-112.958 144.382,-112.958c69.505,0 127.815,46.937 143.717,110.215l-22.677,151.807l20.426,3.049l2.251,-15.072c40.397,3.896 77.21,-24.509 83.278,-65.118c6.066,-40.609 -20.839,-78.534 -60.613,-86.617z" fill="#FFFFFF"/>
    <path id="svg_4" d="m62.918,199.366l-30.424,0l0,92.537l30.425,0c16.54,0 28.532,-4.924 35.728,-14.77c5.429,-7.322 8.08,-17.169 8.08,-29.921l0,-2.525c0,-11.992 -2.651,-21.968 -7.955,-29.541c-7.321,-10.479 -19.441,-15.78 -35.854,-15.78zm37.749,47.847c0,11.489 -2.273,20.072 -6.818,26.385c-6.06,8.079 -16.412,12.247 -30.931,12.247l-24.365,0l0,-80.418l24.365,0c24.998,0 37.749,13.253 37.749,39.261l0,2.525z" fill="#FFFFFF"/>
    <path id="svg_5" d="m172.251,274.229l0,-48.856l-5.935,0c0,0 0,27.898 0,40.271c0,8.585 -3.534,20.453 -22.471,20.453c-10.983,0 -22.345,-2.653 -22.345,-19.696c0,-12.37 0,-41.028 0,-41.028l-5.934,0l0,41.028c0,22.726 16.791,25.628 28.279,25.628c7.575,0 18.053,-2.02 23.607,-9.72c0.632,4.796 4.923,9.848 7.701,9.848l2.021,-4.801c-3.408,-3.025 -4.923,-5.551 -4.923,-13.127z" fill="#FFFFFF"/>
    <path id="svg_6" d="m275.017,277.512l0,-28.91c0,-19.568 -10.856,-23.229 -22.471,-23.229c-9.595,0 -16.917,4.796 -20.325,8.583c-3.788,-6.817 -10.353,-8.583 -18.179,-8.583c-9.596,0 -15.908,4.165 -20.83,8.079l0,-8.079l-5.935,0l0,66.53l5.935,0l0,-51.128c3.029,-3.156 8.962,-9.47 20.83,-9.47c14.518,0 14.518,11.236 14.518,18.307l0,42.291l5.933,0l0,-43.302c0,-4.166 0.505,-7.195 2.021,-9.974c1.515,-2.775 6.438,-7.322 16.033,-7.322c13.887,0 16.538,8.963 16.538,18.307l0,31.687c0,5.555 4.671,10.479 11.11,10.479l1.389,-4.421c-6.441,-1.386 -6.567,-6.058 -6.567,-9.845z" fill="#FFFFFF"/>
    <path id="svg_7" d="m321.479,225.373c-11.613,0 -20.198,4.544 -25.122,11.109l0,-11.109l-5.934,0l0,95.188l5.934,0l0,-40.146c4.795,7.954 15.529,11.742 25.122,11.742c20.832,0 30.046,-15.656 30.046,-29.542l0,-7.827c0,-18.559 -14.389,-29.415 -30.046,-29.415zm24.112,37.242c0,12.497 -9.09,23.608 -24.111,23.608c-13.256,0 -25.25,-8.079 -25.25,-23.608l0,-8.207c0,-12.496 9.596,-23.103 25.25,-23.103c14.52,0 24.111,10.982 24.111,23.482l0,7.828z" fill="#FFFFFF"/>
    <path id="svg_8" d="m389.781,255.038c-7.321,0 -21.585,-1.133 -21.585,-11.233c0,-5.682 3.405,-13.509 21.585,-13.509c10.227,0 14.394,2.021 18.56,4.544l3.28,-4.797c-4.039,-3.156 -10.349,-5.68 -21.84,-5.68c-11.235,0 -27.521,3.282 -27.521,19.441c0,8.207 5.43,16.917 27.521,16.917c5.178,0 19.695,1.514 19.695,13.633c0,7.576 -8.204,12.625 -20.197,12.625c-17.297,0 -23.863,-8.709 -25.376,-10.981l-3.537,5.049c4.798,5.553 13.131,11.866 28.913,11.866c9.973,0 26.132,-4.165 26.132,-18.559c0,-14.138 -13.637,-19.316 -25.63,-19.316z" fill="#FFFFFF"/>
    <path id="svg_9" d="m438.769,271.074l0,-40.021l14.141,0l0.883,-5.68l-15.023,0l0,-17.676l-5.935,1.137c0,3.536 0,9.596 0,16.539l-12.878,0l-0.756,5.68l13.634,0c0,16.793 0,36.484 0,40.021c0,15.275 9.342,21.966 22.218,20.703l1.389,-5.304c-5.554,0.001 -17.673,0.761 -17.673,-15.399z" fill="#FFFFFF"/>
    <path id="svg_10" d="m493.18,286.6c-14.139,0 -23.229,-5.175 -23.229,-23.605c0,0 48.1,9.847 48.1,-17.802c0,-14.393 -12.499,-19.819 -24.745,-19.819c-23.229,0 -29.289,13.383 -29.289,31.687c0,0.354 0,1.206 0,2.783c0,0.837 0,1.863 0,3.151c0,25.88 16.917,29.54 29.163,29.54c11.615,0 25.882,-7.574 25.882,-20.956l-5.684,0.757c0,6.691 -7.32,14.264 -20.198,14.264zm0.126,-55.294c11.868,0 18.813,5.05 18.813,13.887c0,19.946 -42.167,12.119 -42.167,12.119c-0.001,-13.002 2.019,-26.006 23.354,-26.006z" fill="#FFFFFF"/>
    <path id="svg_11" d="m536.99,235.726l0,-10.353l-5.934,0l0,66.53l5.934,0l0,-41.66c0,-8.458 7.826,-20.074 22.345,-20.074l1.137,-4.923c-14.772,0 -19.316,4.923 -23.482,10.48z" fill="#FFFFFF"/>
   </g>
  </g>
  <g display="none" id="Layer_3">
   <g id="svg_12" display="inline">
    <path id="svg_13" d="m462.606,76.64l-51.622,-66.483l-110.547,0l-0.307,0l-110.549,0l-51.622,66.483l23.464,166.599l21.532,0c-0.001,0.146 -0.011,0.29 -0.011,0.437c0,23.11 18.735,41.845 41.845,41.845c23.11,0 41.845,-18.734 41.845,-41.845c0,-0.146 -0.01,-0.29 -0.011,-0.437l33.506,0l0.307,0l33.131,0c-0.001,0.146 -0.011,0.29 -0.011,0.437c0,23.11 18.734,41.845 41.845,41.845s41.845,-18.734 41.845,-41.845c0,-0.146 -0.01,-0.29 -0.011,-0.437l21.907,0l23.464,-166.599zm-237.159,188.546c-11.879,0 -21.509,-9.631 -21.509,-21.51c0,-0.147 0.019,-0.29 0.022,-0.437l42.974,0c0.003,0.146 0.022,0.289 0.022,0.437c0.001,11.879 -9.629,21.51 -21.509,21.51zm-13.359,-63.793l0,-82.127c0,-5.831 4.727,-10.559 10.559,-10.559c5.832,0 10.559,4.728 10.559,10.559l0,82.127c0,5.831 -4.728,10.56 -10.559,10.56c-5.832,-0.001 -10.559,-4.729 -10.559,-10.56zm72.098,0c0,5.831 -4.727,10.56 -10.558,10.56c-5.833,0 -10.56,-4.729 -10.56,-10.56l0,-82.127c0,-5.831 4.728,-10.559 10.56,-10.559c5.831,0 10.558,4.728 10.558,10.559l0,82.127zm52.203,0c0,5.831 -4.729,10.56 -10.561,10.56c-5.831,0 -10.559,-4.729 -10.559,-10.56l0,-82.127c0,-5.831 4.728,-10.559 10.559,-10.559c5.832,0 10.561,4.728 10.561,10.559l0,82.127zm39.67,63.793c-11.88,0 -21.51,-9.631 -21.51,-21.51c0,-0.147 0.02,-0.29 0.022,-0.437l42.975,0c0.002,0.146 0.021,0.289 0.021,0.437c0,11.879 -9.629,21.51 -21.508,21.51zm-9.809,-63.793l0,-82.127c0,-5.831 4.729,-10.559 10.561,-10.559c5.83,0 10.558,4.728 10.558,10.559l0,82.127c0,5.831 -4.728,10.56 -10.558,10.56c-5.832,-0.001 -10.561,-4.729 -10.561,-10.56zm-201.295,-120.06l37.544,-53.969l198.667,0l37.544,53.969l-273.755,0z" fill="#FFFFFF"/>
    <path id="svg_14" d="m509.906,41.086l3.26,-21.826l-14.223,-2.125c-31.73,-74.741 -108.197,-127.432 -197.503,-127.432c-87.946,0 -163.442,51.098 -196.024,124.033l-18.583,2.775l3.26,21.826c-49.967,10.156 -83.768,57.801 -76.148,108.817c7.622,51.018 53.87,86.704 104.623,81.811l2.828,18.935l25.66,-3.832l-27.563,-184.522c18.701,-81.235 92.808,-141.909 181.386,-141.909c87.321,0 160.575,58.966 180.552,138.464l-28.487,190.714l25.66,3.832l2.827,-18.935c50.755,4.893 97.002,-30.794 104.624,-81.812c7.62,-51.015 -26.182,-98.66 -76.149,-108.814z" fill="#FFFFFF"/>
   </g>
  </g>
  <g id="svg_15">
   <g id="svg_26">
    <path id="svg_16" d="m142.421621,72.137499l-13.467,-17.344l-28.841,0l-0.08,0l-28.841,0l-13.468,17.344l6.122,43.463l5.617,0c0,0.039 -0.003,0.076 -0.003,0.114c0,6.03 4.888,10.917 10.917,10.917c6.028,0 10.917,-4.887 10.917,-10.917c0,-0.038 -0.003,-0.075 -0.003,-0.114l8.741,0l0.08,0l8.644,0c0,0.039 -0.003,0.076 -0.003,0.114c0,6.03 4.889,10.917 10.917,10.917s10.917,-4.887 10.917,-10.917c0,-0.038 -0.003,-0.075 -0.003,-0.114l5.715,0l6.122,-43.463zm-61.872,49.19c-3.099,0 -5.611,-2.513 -5.611,-5.612c0,-0.038 0.004,-0.075 0.006,-0.114l11.211,0c0.001,0.039 0.005,0.076 0.005,0.114c0,3.099 -2.511,5.612 -5.611,5.612zm-3.485,-16.643l0,-21.426c0,-1.521 1.233,-2.755 2.754,-2.755c1.521,0 2.755,1.233 2.755,2.755l0,21.426c0,1.521 -1.234,2.755 -2.755,2.755c-1.52,0 -2.754,-1.235 -2.754,-2.755zm18.81,0c0,1.521 -1.233,2.755 -2.754,2.755c-1.522,0 -2.755,-1.235 -2.755,-2.755l0,-21.426c0,-1.521 1.233,-2.755 2.755,-2.755c1.521,0 2.754,1.233 2.754,2.755l0,21.426zm13.618,0c0,1.521 -1.232,2.755 -2.754,2.755c-1.521,0 -2.755,-1.235 -2.755,-2.755l0,-21.426c0,-1.521 1.234,-2.755 2.755,-2.755c1.522,0 2.754,1.233 2.754,2.755l0,21.426zm10.35,16.643c-3.099,0 -5.612,-2.513 -5.612,-5.612c0,-0.038 0.005,-0.075 0.005,-0.114l11.212,0c0,0.039 0.006,0.076 0.006,0.114c0,3.099 -2.511,5.612 -5.611,5.612zm-2.559,-16.643l0,-21.426c0,-1.521 1.233,-2.755 2.755,-2.755c1.521,0 2.754,1.233 2.754,2.755l0,21.426c0,1.521 -1.233,2.755 -2.754,2.755c-1.522,0 -2.755,-1.235 -2.755,-2.755zm-52.516,-31.322l9.794,-14.081l51.83,0l9.795,14.081l-71.419,0z" fill="#FFFFFF"/>
    <path id="svg_17" d="m154.761621,62.861499l0.85,-5.694l-3.71,-0.553c-8.278,-19.5 -28.228,-33.246 -51.526,-33.246c-22.944,0 -42.64,13.331 -51.141,32.359l-4.848,0.724l0.851,5.694c-13.036,2.65 -21.854,15.08 -19.866,28.388c1.988,13.31 14.054,22.62 27.295,21.344l0.738,4.939l6.694,-1l-7.191,-48.139c4.879,-21.194 24.213,-37.022 47.322,-37.022c22.781,0 41.892,15.384 47.104,36.123l-7.433,49.755l6.695,1l0.738,-4.939c13.241,1.275 25.306,-8.035 27.295,-21.345c1.987,-13.308 -6.831,-25.738 -19.867,-28.388z" fill="#FFFFFF"/>
   </g>
  </g>
 </g>
</svg>