<?xml version="1.0" encoding="utf-8"?>
<!-- Generator: Adobe Illustrator 16.0.0, SVG Export Plug-In . SVG Version: 6.00 Build 0)  -->
<!DOCTYPE svg PUBLIC "-//W3C//DTD SVG 1.1//EN" "http://www.w3.org/Graphics/SVG/1.1/DTD/svg11.dtd">
<svg version="1.1" xmlns="http://www.w3.org/2000/svg" xmlns:xlink="http://www.w3.org/1999/xlink" x="0px" y="0px" width="600px"
	 height="510.563px" viewBox="0 0 600 510.563" enable-background="new 0 0 600 510.563" xml:space="preserve">
<g id="Layer_2">
	<g>
		<path fill="#FFFFFF" d="M391.238,299.175c0-0.117-0.007-0.231-0.007-0.348h17.437l18.675-132.612l-41.088-52.919h-87.994h-0.243
			h-87.998l-41.09,52.919l18.678,132.612h17.138c0,0.116-0.008,0.23-0.008,0.348c0,18.396,14.912,33.307,33.308,33.307
			c18.395,0,33.308-14.911,33.308-33.307c0-0.117-0.007-0.231-0.007-0.348h26.671h0.243h26.371c0,0.116-0.008,0.23-0.008,0.348
			c0,18.396,14.911,33.307,33.307,33.307C376.328,332.481,391.238,317.57,391.238,299.175z M238.57,316.297
			c-9.456,0-17.121-7.668-17.121-17.122c0-0.117,0.015-0.231,0.017-0.348h34.207c0.003,0.116,0.017,0.23,0.017,0.348
			C255.691,308.629,248.026,316.297,238.57,316.297z M227.936,265.519v-65.374c0-4.641,3.763-8.402,8.404-8.402
			c4.642,0,8.406,3.761,8.406,8.402v65.374c0,4.64-3.765,8.404-8.406,8.404C231.699,273.923,227.936,270.159,227.936,265.519z
			 M285.325,265.519c0,4.64-3.762,8.404-8.403,8.404c-4.644,0-8.406-3.764-8.406-8.404v-65.374c0-4.641,3.763-8.402,8.406-8.402
			c4.641,0,8.403,3.761,8.403,8.402V265.519z M326.876,265.519c0,4.64-3.762,8.404-8.404,8.404c-4.644,0-8.404-3.764-8.404-8.404
			v-65.374c0-4.641,3.761-8.402,8.404-8.402c4.643,0,8.404,3.761,8.404,8.402V265.519z M190.419,169.952l29.885-42.958H378.44
			l29.884,42.958H190.419z M367.456,200.145v65.374c0,4.64-3.761,8.404-8.4,8.404c-4.645,0-8.408-3.764-8.408-8.404v-65.374
			c0-4.641,3.764-8.402,8.408-8.402C363.695,191.742,367.456,195.503,367.456,200.145z M358.453,316.297
			c-9.453,0-17.12-7.668-17.12-17.122c0-0.117,0.017-0.231,0.019-0.348h34.207c0,0.116,0.017,0.23,0.017,0.348
			C375.575,308.629,367.911,316.297,358.453,316.297z"/>
		<path fill="#FFFFFF" d="M464.995,137.916l2.596-17.373l-11.322-1.691C431.012,59.358,370.146,17.418,299.061,17.418
			c-70.003,0-130.099,40.673-156.034,98.729l-14.791,2.208l2.594,17.374c-39.772,8.083-66.678,46.008-60.613,86.614
			c6.066,40.609,42.88,69.017,83.279,65.121l2.25,15.072l20.425-3.052l-21.939-146.875
			c14.885-64.662,73.874-112.958,144.382-112.958c69.505,0,127.815,46.937,143.717,110.215l-22.677,151.807l20.426,3.049
			l2.251-15.072c40.397,3.896,77.21-24.509,83.278-65.118C531.674,183.923,504.769,145.998,464.995,137.916z"/>
		<path fill="#FFFFFF" d="M62.918,375.859H32.494v92.537h30.425c16.54,0,28.532-4.924,35.728-14.77
			c5.429-7.322,8.08-17.169,8.08-29.921v-2.525c0-11.992-2.651-21.968-7.955-29.541C91.451,381.16,79.331,375.859,62.918,375.859z
			 M100.667,423.706c0,11.489-2.273,20.072-6.818,26.385c-6.06,8.079-16.412,12.247-30.931,12.247H38.553V381.92h24.365
			c24.998,0,37.749,13.253,37.749,39.261V423.706z"/>
		<path fill="#FFFFFF" d="M172.251,450.723v-48.856h-5.935c0,0,0,27.898,0,40.271c0,8.585-3.534,20.453-22.471,20.453
			c-10.983,0-22.345-2.653-22.345-19.696c0-12.37,0-41.028,0-41.028h-5.934v41.028c0,22.726,16.791,25.628,28.279,25.628
			c7.575,0,18.053-2.02,23.607-9.72c0.632,4.796,4.923,9.848,7.701,9.848l2.021-4.801
			C173.766,460.824,172.251,458.298,172.251,450.723z"/>
		<path fill="#FFFFFF" d="M275.017,454.005v-28.91c0-19.568-10.856-23.229-22.471-23.229c-9.595,0-16.917,4.796-20.325,8.583
			c-3.788-6.817-10.353-8.583-18.179-8.583c-9.596,0-15.908,4.165-20.83,8.079v-8.079h-5.935v66.53h5.935v-51.128
			c3.029-3.156,8.962-9.47,20.83-9.47c14.518,0,14.518,11.236,14.518,18.307v42.291h5.933v-43.302c0-4.166,0.505-7.195,2.021-9.974
			c1.515-2.775,6.438-7.322,16.033-7.322c13.887,0,16.538,8.963,16.538,18.307v31.687c0,5.555,4.671,10.479,11.11,10.479
			l1.389-4.421C275.143,462.464,275.017,457.792,275.017,454.005z"/>
		<path fill="#FFFFFF" d="M321.479,401.866c-11.613,0-20.198,4.544-25.122,11.109v-11.109h-5.934v95.188h5.934v-40.146
			c4.795,7.954,15.529,11.742,25.122,11.742c20.832,0,30.046-15.656,30.046-29.542v-7.827
			C351.525,412.722,337.136,401.866,321.479,401.866z M345.591,439.108c0,12.497-9.09,23.608-24.111,23.608
			c-13.256,0-25.25-8.079-25.25-23.608v-8.207c0-12.496,9.596-23.103,25.25-23.103c14.52,0,24.111,10.982,24.111,23.482V439.108z"/>
		<path fill="#FFFFFF" d="M389.781,431.531c-7.321,0-21.585-1.133-21.585-11.233c0-5.682,3.405-13.509,21.585-13.509
			c10.227,0,14.394,2.021,18.56,4.544l3.28-4.797c-4.039-3.156-10.349-5.68-21.84-5.68c-11.235,0-27.521,3.282-27.521,19.441
			c0,8.207,5.43,16.917,27.521,16.917c5.178,0,19.695,1.514,19.695,13.633c0,7.576-8.204,12.625-20.197,12.625
			c-17.297,0-23.863-8.709-25.376-10.981l-3.537,5.049c4.798,5.553,13.131,11.866,28.913,11.866c9.973,0,26.132-4.165,26.132-18.559
			C415.411,436.709,401.774,431.531,389.781,431.531z"/>
		<path fill="#FFFFFF" d="M438.769,447.567v-40.021h14.141l0.883-5.68h-15.023V384.19l-5.935,1.137c0,3.536,0,9.596,0,16.539
			h-12.878l-0.756,5.68h13.634c0,16.793,0,36.484,0,40.021c0,15.275,9.342,21.966,22.218,20.703l1.389-5.304
			C450.888,462.967,438.769,463.728,438.769,447.567z"/>
		<path fill="#FFFFFF" d="M493.18,463.093c-14.139,0-23.229-5.175-23.229-23.605c0,0,48.1,9.847,48.1-17.802
			c0-14.393-12.499-19.819-24.745-19.819c-23.229,0-29.289,13.383-29.289,31.687c0,0.354,0,1.206,0,2.783c0,0.837,0,1.863,0,3.151
			c0,25.88,16.917,29.54,29.163,29.54c11.615,0,25.882-7.574,25.882-20.956l-5.684,0.757
			C513.378,455.521,506.058,463.093,493.18,463.093z M493.306,407.799c11.868,0,18.813,5.05,18.813,13.887
			c0,19.946-42.167,12.119-42.167,12.119C469.951,420.803,471.971,407.799,493.306,407.799z"/>
		<path fill="#FFFFFF" d="M536.99,412.219v-10.353h-5.934v66.53h5.934v-41.66c0-8.458,7.826-20.074,22.345-20.074l1.137-4.923
			C545.7,401.739,541.156,406.662,536.99,412.219z"/>
	</g>
</g>
<g id="Layer_3" display="none">
	<g display="inline">
		<path d="M462.606,253.133l-51.622-66.483H300.437h-0.307H189.581l-51.622,66.483l23.464,166.599h21.532
			c-0.001,0.146-0.011,0.29-0.011,0.437c0,23.11,18.735,41.845,41.845,41.845c23.11,0,41.845-18.734,41.845-41.845
			c0-0.146-0.01-0.29-0.011-0.437h33.506h0.307h33.131c-0.001,0.146-0.011,0.29-0.011,0.437c0,23.11,18.734,41.845,41.845,41.845
			s41.845-18.734,41.845-41.845c0-0.146-0.01-0.29-0.011-0.437h21.907L462.606,253.133z M225.447,441.679
			c-11.879,0-21.509-9.631-21.509-21.51c0-0.147,0.019-0.29,0.022-0.437h42.974c0.003,0.146,0.022,0.289,0.022,0.437
			C246.957,432.048,237.327,441.679,225.447,441.679z M212.088,377.886v-82.127c0-5.831,4.727-10.559,10.559-10.559
			c5.832,0,10.559,4.728,10.559,10.559v82.127c0,5.831-4.728,10.56-10.559,10.56C216.815,388.445,212.088,383.717,212.088,377.886z
			 M284.186,377.886c0,5.831-4.727,10.56-10.558,10.56c-5.833,0-10.56-4.729-10.56-10.56v-82.127c0-5.831,4.728-10.559,10.56-10.559
			c5.831,0,10.558,4.728,10.558,10.559V377.886z M336.389,377.886c0,5.831-4.729,10.56-10.561,10.56
			c-5.831,0-10.559-4.729-10.559-10.56v-82.127c0-5.831,4.728-10.559,10.559-10.559c5.832,0,10.561,4.728,10.561,10.559V377.886z
			 M376.059,441.679c-11.88,0-21.51-9.631-21.51-21.51c0-0.147,0.02-0.29,0.022-0.437h42.975c0.002,0.146,0.021,0.289,0.021,0.437
			C397.567,432.048,387.938,441.679,376.059,441.679z M366.25,377.886v-82.127c0-5.831,4.729-10.559,10.561-10.559
			c5.83,0,10.558,4.728,10.558,10.559v82.127c0,5.831-4.728,10.56-10.558,10.56C370.979,388.445,366.25,383.717,366.25,377.886z
			 M164.955,257.826l37.544-53.969h198.667l37.544,53.969H164.955z"/>
		<path d="M509.906,217.579l3.26-21.826l-14.223-2.125C467.213,118.888,390.746,66.197,301.44,66.197
			c-87.946,0-163.442,51.098-196.024,124.033l-18.583,2.775l3.26,21.826c-49.968,10.154-83.769,57.799-76.149,108.815
			c7.622,51.018,53.87,86.704,104.623,81.811l2.828,18.935l25.66-3.832L119.493,236.04C138.193,154.804,212.301,94.13,300.879,94.13
			c87.321,0,160.575,58.966,180.552,138.464l-28.487,190.714l25.66,3.832l2.827-18.935c50.755,4.893,97.002-30.794,104.624-81.812
			C593.675,275.378,559.873,227.733,509.906,217.579z"/>
	</g>
</g>
<g id="Layer_4" display="none">
	<g display="inline">
		<path d="M136.91,241.147l-13.467-17.345H94.602h-0.08H65.681l-13.468,17.345l6.122,43.463h5.617c0,0.039-0.003,0.076-0.003,0.114
			c0,6.03,4.888,10.917,10.917,10.917c6.028,0,10.917-4.887,10.917-10.917c0-0.038-0.003-0.075-0.003-0.114h8.741h0.08h8.644
			c0,0.039-0.003,0.076-0.003,0.114c0,6.03,4.889,10.917,10.917,10.917s10.917-4.887,10.917-10.917c0-0.038-0.003-0.075-0.003-0.114
			h5.715L136.91,241.147z M75.038,290.337c-3.099,0-5.611-2.513-5.611-5.612c0-0.038,0.004-0.075,0.006-0.114h11.211
			c0.001,0.039,0.005,0.076,0.005,0.114C80.649,287.824,78.138,290.337,75.038,290.337z M71.553,273.694v-21.426
			c0-1.521,1.233-2.755,2.754-2.755c1.521,0,2.755,1.233,2.755,2.755v21.426c0,1.521-1.234,2.755-2.755,2.755
			C72.787,276.449,71.553,275.214,71.553,273.694z M90.363,273.694c0,1.521-1.233,2.755-2.754,2.755
			c-1.522,0-2.755-1.235-2.755-2.755v-21.426c0-1.521,1.233-2.755,2.755-2.755c1.521,0,2.754,1.233,2.754,2.755V273.694z
			 M103.981,273.694c0,1.521-1.232,2.755-2.754,2.755c-1.521,0-2.755-1.235-2.755-2.755v-21.426c0-1.521,1.234-2.755,2.755-2.755
			c1.522,0,2.754,1.233,2.754,2.755V273.694z M114.331,290.337c-3.099,0-5.612-2.513-5.612-5.612c0-0.038,0.005-0.075,0.005-0.114
			h11.212c0,0.039,0.006,0.076,0.006,0.114C119.942,287.824,117.431,290.337,114.331,290.337z M111.772,273.694v-21.426
			c0-1.521,1.233-2.755,2.755-2.755c1.521,0,2.754,1.233,2.754,2.755v21.426c0,1.521-1.233,2.755-2.754,2.755
			C113.005,276.449,111.772,275.214,111.772,273.694z M59.256,242.373l9.794-14.081h51.83l9.795,14.081H59.256z"/>
		<path d="M149.25,231.872l0.85-5.694l-3.71-0.553c-8.278-19.5-28.228-33.246-51.526-33.246c-22.944,0-42.64,13.331-51.141,32.359
			l-4.848,0.724l0.851,5.694c-13.036,2.65-21.854,15.08-19.866,28.389c1.988,13.31,14.054,22.62,27.295,21.344l0.738,4.939l6.694-1
			l-7.191-48.139c4.879-21.194,24.213-37.022,47.322-37.022c22.781,0,41.892,15.384,47.104,36.123l-7.433,49.755l6.695,1
			l0.738-4.939c13.241,1.275,25.306-8.035,27.295-21.345C171.104,246.952,162.286,234.521,149.25,231.872z"/>
		<path d="M231.567,208.935h-21.728v66.085h21.728c11.811,0,20.375-3.516,25.514-10.548c3.877-5.229,5.77-12.261,5.77-21.367v-1.804
			c0-8.565-1.893-15.688-5.68-21.097C251.942,212.722,243.287,208.935,231.567,208.935z M258.524,243.105
			c0,8.204-1.623,14.334-4.869,18.843c-4.328,5.77-11.721,8.745-22.088,8.745h-17.4v-57.43h17.4
			c17.851,0,26.957,9.466,26.957,28.039V243.105z"/>
		<path d="M309.641,262.398v-34.891h-4.237c0,0,0,19.925,0,28.76c0,6.13-2.524,14.605-16.048,14.605
			c-7.843,0-15.957-1.893-15.957-14.064c0-8.836,0-29.301,0-29.301h-4.237v29.301c0,16.228,11.991,18.302,20.194,18.302
			c5.41,0,12.894-1.443,16.86-6.942c0.45,3.426,3.517,7.032,5.499,7.032l1.442-3.426
			C310.724,269.611,309.641,267.809,309.641,262.398z"/>
		<path d="M383.028,264.743v-20.646c0-13.975-7.753-16.589-16.048-16.589c-6.853,0-12.081,3.426-14.516,6.131
			c-2.705-4.869-7.394-6.131-12.982-6.131c-6.852,0-11.359,2.975-14.876,5.77v-5.77h-4.237v47.513h4.237v-36.514
			c2.163-2.254,6.4-6.762,14.876-6.762c10.367,0,10.367,8.024,10.367,13.073v30.203h4.237v-30.924c0-2.975,0.361-5.139,1.443-7.122
			c1.081-1.984,4.598-5.229,11.45-5.229c9.917,0,11.811,6.401,11.811,13.073v22.63c0,3.966,3.336,7.482,7.934,7.482l0.991-3.155
			C383.118,270.783,383.028,267.448,383.028,264.743z"/>
		<path d="M416.205,227.508c-8.295,0-14.426,3.246-17.942,7.934v-7.934h-4.237v67.978h4.237v-28.669
			c3.427,5.68,11.09,8.384,17.942,8.384c14.875,0,21.457-11.179,21.457-21.097v-5.589
			C437.662,235.261,427.384,227.508,416.205,227.508z M433.424,254.104c0,8.925-6.49,16.86-17.219,16.86
			c-9.467,0-18.031-5.77-18.031-16.86v-5.86c0-8.926,6.852-16.499,18.031-16.499c10.367,0,17.219,7.844,17.219,16.77V254.104z"/>
		<path d="M464.979,248.695c-5.229,0-15.418-0.811-15.418-8.024c0-4.057,2.435-9.647,15.418-9.647
			c7.303,0,10.276,1.443,13.252,3.246l2.345-3.426c-2.886-2.254-7.394-4.058-15.597-4.058c-8.024,0-19.655,2.344-19.655,13.885
			c0,5.86,3.878,12.081,19.655,12.081c3.695,0,14.064,1.082,14.064,9.737c0,5.409-5.861,9.016-14.426,9.016
			c-12.352,0-17.04-6.221-18.121-7.844l-2.524,3.606c3.425,3.967,9.376,8.475,20.646,8.475c7.122,0,18.662-2.976,18.662-13.253
			C483.279,252.392,473.543,248.695,464.979,248.695z"/>
		<path d="M499.958,260.145v-28.58h10.097l0.631-4.057h-10.728v-12.622l-4.238,0.812c0,2.524,0,6.852,0,11.811h-9.196l-0.54,4.057
			h9.736c0,11.991,0,26.055,0,28.58c0,10.909,6.671,15.688,15.868,14.786l0.991-3.786
			C508.612,271.144,499.958,271.685,499.958,260.145z"/>
		<path d="M538.814,271.234c-10.098,0-16.589-3.697-16.589-16.86c0,0,34.351,7.032,34.351-12.712
			c0-10.278-8.927-14.155-17.672-14.155c-16.589,0-20.916,9.557-20.916,22.63c0,0.254,0,0.862,0,1.988c0,0.596,0,1.329,0,2.249
			c0,18.482,12.081,21.097,20.826,21.097c8.294,0,18.481-5.41,18.481-14.966l-4.057,0.541
			C553.239,265.825,548.01,271.234,538.814,271.234z M538.904,231.745c8.475,0,13.434,3.606,13.434,9.917
			c0,14.245-30.112,8.655-30.112,8.655C522.226,241.031,523.667,231.745,538.904,231.745z"/>
		<path d="M570.096,234.9v-7.393h-4.237v47.513h4.237v-29.751c0-6.041,5.591-14.335,15.958-14.335l0.812-3.516
			C576.316,227.418,573.071,230.934,570.096,234.9z"/>
	</g>
</g>
</svg>
